<svg xmlns="http://www.w3.org/2000/svg" width="651" height="1116" viewBox="0 0 651 1116" preserveAspectRatio="xMidYMid meet" role="img" aria-label="Leonardtown Village two-bedroom townhouse first-floor plan">
<defs><style>
    .fp{fill:#FFFFFF}
    .w{fill:none;stroke:#2C3E2D;stroke-width:7;stroke-linecap:butt}
    .wo{fill:none;stroke:#2C3E2D;stroke-width:10;stroke-linecap:butt}
    .d{fill:none;stroke:#7C9880;stroke-width:2.5;stroke-dasharray:5 6}
    .arc{fill:none;stroke:#5E7D63;stroke-width:3}
    .win{fill:none;stroke:#2C3E2D;stroke-width:2.5}
    .st{fill:none;stroke:#2C3E2D;stroke-width:2.5}
    .rm{fill:#22331F;font-family:'Helvetica Neue',Arial,sans-serif;font-size:25px;font-style:italic;text-anchor:middle}
    .cl{fill:#4A5C4D;font-family:'Helvetica Neue',Arial,sans-serif;font-size:18px;font-style:italic;text-anchor:middle}
    .sm{fill:#4A5C4D;font-family:'Helvetica Neue',Arial,sans-serif;font-size:14px;font-style:italic;text-anchor:middle}
  </style></defs>
<rect class="fp" x="23" y="26" width="600" height="1062"/>
<path class="w" d="M17,560 H395 M483,560 H621 M488,665 H624"/>
<path class="d" d="M408,556 H491 M408,564 H491 M483,585 V659 M491,585 V659"/>
<path class="arc" d="M86,26 V132 M86,132 A106,106 0 0 0 192,26"/>
<path class="win" d="M384,21 H491 M384,26 H491 M384,31 H491 M384,19 V33 M491,19 V33"/>
<path class="win" d="M93,1083 H194 M93,1088 H194 M93,1093 H194 M93,1081 V1095 M194,1081 V1095"/>
<path class="arc" d="M458,1088 V980 M350,1088 A108,108 0 0 1 458,980"/>
<path class="st" d="M487,582 H623 M487,610 H623 M487,637 H623 M487,657 H623"/>
<path class="st" d="M487,672 V1085 M623,672 V1085 M487,691 H623 M487,721 H623 M487,748 H623 M487,775 H623 M487,804 H623 M487,832 H623 M487,859 H623 M487,889 H623 M487,916 H623 M487,943 H623 M487,973 H623 M487,1000 H623 M487,1029 H623 M487,1057 H623 M487,1082 H623"/>
<path class="wo" d="M23,26 H86 M192,26 H384 M491,26 H623 V1088 H458 M350,1088 H194 M93,1088 H23 V26"/>
<text class="rm" x="307" y="270">Kitchen/Dining</text>
<text class="rm" x="245" y="850">Living Room</text>
<text class="sm" x="553" y="620">Closet</text>
</svg>